<svg width="815" height="125" viewBox="0 0 815 125" fill="none" xmlns="http://www.w3.org/2000/svg">
<path d="M98.4994 107.72C101.219 114.747 105.129 118.373 110.229 118.6V122C105.696 121.66 99.6327 121.49 92.0394 121.49C82.2927 121.49 75.0394 121.66 70.2794 122V118.6C74.586 118.373 77.646 117.863 79.4594 117.07C81.386 116.163 82.3494 114.577 82.3494 112.31C82.3494 110.383 81.6694 107.72 80.3094 104.32L69.9394 76.44H28.7994L21.8294 94.46C19.5627 100.58 18.4294 105.227 18.4294 108.4C18.4294 111.913 19.6194 114.463 21.9994 116.05C24.4927 117.637 28.2327 118.487 33.2194 118.6V122C26.7594 121.66 20.2427 121.49 13.6694 121.49C8.56938 121.49 4.31938 121.66 0.919375 122V118.6C6.58604 117.24 11.0627 112.31 14.3494 103.81L54.2994 0.78999H57.0194L98.4994 107.72ZM68.5794 73.04L49.5394 22.21L30.1594 73.04H68.5794ZM219.769 5.04C215.802 5.26666 212.856 5.88999 210.929 6.90999C209.002 7.81666 207.699 9.40333 207.019 11.67C206.339 13.8233 205.999 17.0533 205.999 21.36V122.85H202.089L130.689 12.52V102.28C130.689 106.7 131.029 109.987 131.709 112.14C132.502 114.293 133.976 115.88 136.129 116.9C138.282 117.807 141.626 118.373 146.159 118.6V122C142.079 121.66 136.299 121.49 128.819 121.49C122.019 121.49 116.749 121.66 113.009 122V118.6C116.976 118.373 119.922 117.807 121.849 116.9C123.776 115.88 125.079 114.293 125.759 112.14C126.439 109.873 126.779 106.587 126.779 102.28V19.66C126.779 15.3533 126.439 12.2367 125.759 10.31C125.079 8.38333 123.776 7.08 121.849 6.4C120.036 5.71999 117.089 5.26666 113.009 5.04V1.64C116.749 1.97999 122.019 2.14999 128.819 2.14999C133.919 2.14999 138.339 1.97999 142.079 1.64L202.089 94.12V21.36C202.089 16.94 201.692 13.6533 200.899 11.5C200.219 9.34666 198.802 7.81666 196.649 6.90999C194.496 5.88999 191.152 5.26666 186.619 5.04V1.64C190.699 1.97999 196.479 2.14999 203.959 2.14999C210.759 2.14999 216.029 1.97999 219.769 1.64V5.04ZM321.292 107.72C324.012 114.747 327.922 118.373 333.022 118.6V122C328.489 121.66 322.426 121.49 314.832 121.49C305.086 121.49 297.832 121.66 293.072 122V118.6C297.379 118.373 300.439 117.863 302.252 117.07C304.179 116.163 305.142 114.577 305.142 112.31C305.142 110.383 304.462 107.72 303.102 104.32L292.732 76.44H251.592L244.622 94.46C242.356 100.58 241.222 105.227 241.222 108.4C241.222 111.913 242.412 114.463 244.792 116.05C247.286 117.637 251.026 118.487 256.012 118.6V122C249.552 121.66 243.036 121.49 236.462 121.49C231.362 121.49 227.112 121.66 223.712 122V118.6C229.379 117.24 233.856 112.31 237.142 103.81L277.092 0.78999H279.812L321.292 107.72ZM291.372 73.04L272.332 22.21L252.952 73.04H291.372ZM440.862 113.5C438.255 117.353 435.649 120.13 433.042 121.83C430.435 123.53 426.979 124.38 422.672 124.38C418.025 124.38 414.172 123.02 411.112 120.3C408.165 117.58 405.955 112.82 404.482 106.02L400.742 89.02C399.382 83.1267 398.079 78.5933 396.832 75.42C395.699 72.2467 393.942 69.6967 391.562 67.77C389.182 65.8433 385.839 64.88 381.532 64.88H365.382V103.98C365.382 108.287 365.722 111.403 366.402 113.33C367.082 115.257 368.329 116.56 370.142 117.24C372.069 117.92 375.072 118.373 379.152 118.6V122C373.939 121.66 366.742 121.49 357.562 121.49C347.815 121.49 340.562 121.66 335.802 122V118.6C339.882 118.373 342.829 117.92 344.642 117.24C346.569 116.56 347.872 115.257 348.552 113.33C349.232 111.403 349.572 108.287 349.572 103.98V19.66C349.572 15.3533 349.232 12.2367 348.552 10.31C347.872 8.38333 346.569 7.08 344.642 6.4C342.829 5.71999 339.882 5.26666 335.802 5.04V1.64C340.562 1.97999 347.475 2.14999 356.542 2.14999L374.902 1.97999C377.055 1.86666 379.492 1.81 382.212 1.81C395.359 1.81 405.445 4.58666 412.472 10.14C419.612 15.58 423.182 22.6633 423.182 31.39C423.182 35.81 422.105 40.2867 419.952 44.82C417.912 49.24 414.399 53.2633 409.412 56.89C404.539 60.4033 398.135 62.7833 390.202 64.03L392.242 64.37C399.722 65.6167 405.162 67.8833 408.562 71.17C411.962 74.4567 414.455 79.67 416.042 86.81L420.292 104.15C421.425 109.363 422.615 112.99 423.862 115.03C425.109 117.07 426.809 118.09 428.962 118.09C430.889 118.09 432.475 117.58 433.722 116.56C435.082 115.54 436.612 113.897 438.312 111.63L440.862 113.5ZM377.962 5.04C374.449 5.04 371.785 5.43666 369.972 6.22999C368.272 7.02333 367.082 8.44 366.402 10.48C365.722 12.52 365.382 15.58 365.382 19.66V61.48H376.772C387.992 61.48 395.699 58.9867 399.892 54C404.085 49.0133 406.182 42.1 406.182 33.26C406.182 23.9667 403.972 16.94 399.552 12.18C395.132 7.42 387.935 5.04 377.962 5.04ZM489.386 5.04C485.306 5.26666 482.303 5.71999 480.376 6.4C478.563 7.08 477.316 8.38333 476.636 10.31C475.956 12.2367 475.616 15.3533 475.616 19.66V103.98C475.616 108.287 475.956 111.403 476.636 113.33C477.316 115.257 478.563 116.56 480.376 117.24C482.303 117.92 485.306 118.373 489.386 118.6V122C484.173 121.66 476.976 121.49 467.796 121.49C458.05 121.49 450.796 121.66 446.036 122V118.6C450.116 118.373 453.063 117.92 454.876 117.24C456.803 116.56 458.106 115.257 458.786 113.33C459.466 111.403 459.806 108.287 459.806 103.98V19.66C459.806 15.3533 459.466 12.2367 458.786 10.31C458.106 8.38333 456.803 7.08 454.876 6.4C453.063 5.71999 450.116 5.26666 446.036 5.04V1.64C450.796 1.97999 458.05 2.14999 467.796 2.14999C476.863 2.14999 484.06 1.97999 489.386 1.64V5.04ZM592.724 108.23C594.651 111.063 596.747 113.33 599.014 115.03C601.394 116.617 604.284 117.807 607.684 118.6V122C602.244 121.66 595.444 121.49 587.284 121.49C581.164 121.49 575.327 121.66 569.774 122V118.6C572.494 118.487 574.477 118.147 575.724 117.58C576.971 117.013 577.594 116.163 577.594 115.03C577.594 113.897 577.027 112.537 575.894 110.95L551.074 73.55C547.787 68.5633 545.011 65.3333 542.744 63.86C540.477 62.2733 537.304 61.3667 533.224 61.14V103.98C533.224 108.287 533.564 111.403 534.244 113.33C534.924 115.257 536.171 116.56 537.984 117.24C539.911 117.92 542.914 118.373 546.994 118.6V122C541.781 121.66 534.584 121.49 525.404 121.49C515.657 121.49 508.404 121.66 503.644 122V118.6C507.724 118.373 510.671 117.92 512.484 117.24C514.411 116.56 515.714 115.257 516.394 113.33C517.074 111.403 517.414 108.287 517.414 103.98V19.66C517.414 15.3533 517.074 12.2367 516.394 10.31C515.714 8.38333 514.411 7.08 512.484 6.4C510.671 5.71999 507.724 5.26666 503.644 5.04V1.64C508.404 1.97999 515.657 2.14999 525.404 2.14999C534.471 2.14999 541.667 1.97999 546.994 1.64V5.04C542.914 5.26666 539.911 5.71999 537.984 6.4C536.171 7.08 534.924 8.38333 534.244 10.31C533.564 12.2367 533.224 15.3533 533.224 19.66V57.74C541.497 57.4 547.957 54.2267 552.604 48.22L568.924 27.48C574.704 20.34 577.594 14.9 577.594 11.16C577.594 7.19333 574.081 5.15333 567.054 5.04V1.64C573.514 1.97999 580.031 2.14999 586.604 2.14999C592.837 2.14999 597.654 1.97999 601.054 1.64V5.04C597.314 5.60666 593.801 6.85333 590.514 8.78C587.227 10.5933 584.054 13.4833 580.994 17.45L553.284 52.98L592.724 108.23ZM704.12 108.23C706.047 111.063 708.144 113.33 710.41 115.03C712.79 116.617 715.68 117.807 719.08 118.6V122C713.64 121.66 706.84 121.49 698.68 121.49C692.56 121.49 686.724 121.66 681.17 122V118.6C683.89 118.487 685.874 118.147 687.12 117.58C688.367 117.013 688.99 116.163 688.99 115.03C688.99 113.897 688.424 112.537 687.29 110.95L662.47 73.55C659.184 68.5633 656.407 65.3333 654.14 63.86C651.874 62.2733 648.7 61.3667 644.62 61.14V103.98C644.62 108.287 644.96 111.403 645.64 113.33C646.32 115.257 647.567 116.56 649.38 117.24C651.307 117.92 654.31 118.373 658.39 118.6V122C653.177 121.66 645.98 121.49 636.8 121.49C627.054 121.49 619.8 121.66 615.04 122V118.6C619.12 118.373 622.067 117.92 623.88 117.24C625.807 116.56 627.11 115.257 627.79 113.33C628.47 111.403 628.81 108.287 628.81 103.98V19.66C628.81 15.3533 628.47 12.2367 627.79 10.31C627.11 8.38333 625.807 7.08 623.88 6.4C622.067 5.71999 619.12 5.26666 615.04 5.04V1.64C619.8 1.97999 627.054 2.14999 636.8 2.14999C645.867 2.14999 653.064 1.97999 658.39 1.64V5.04C654.31 5.26666 651.307 5.71999 649.38 6.4C647.567 7.08 646.32 8.38333 645.64 10.31C644.96 12.2367 644.62 15.3533 644.62 19.66V57.74C652.894 57.4 659.354 54.2267 664 48.22L680.32 27.48C686.1 20.34 688.99 14.9 688.99 11.16C688.99 7.19333 685.477 5.15333 678.45 5.04V1.64C684.91 1.97999 691.427 2.14999 698 2.14999C704.234 2.14999 709.05 1.97999 712.45 1.64V5.04C708.71 5.60666 705.197 6.85333 701.91 8.78C698.624 10.5933 695.45 13.4833 692.39 17.45L664.68 52.98L704.12 108.23ZM813.477 100.24C813.477 106.7 813.874 113.953 814.667 122C806.96 121.66 793.984 121.49 775.737 121.49C753.977 121.49 737.544 121.66 726.437 122V118.6C730.517 118.373 733.464 117.92 735.277 117.24C737.204 116.56 738.507 115.257 739.187 113.33C739.867 111.403 740.207 108.287 740.207 103.98V19.66C740.207 15.3533 739.867 12.2367 739.187 10.31C738.507 8.38333 737.204 7.08 735.277 6.4C733.464 5.71999 730.517 5.26666 726.437 5.04V1.64C737.544 1.97999 753.977 2.14999 775.737 2.14999C792.397 2.14999 804.24 1.97999 811.267 1.64C810.474 9.12 810.077 15.8067 810.077 21.7C810.077 26.12 810.247 29.6333 810.587 32.24H806.677C805.884 24.8733 804.864 19.4333 803.617 15.92C802.37 12.2933 800.274 9.68666 797.327 8.1C794.38 6.39999 789.904 5.54999 783.897 5.54999H769.787C765.707 5.54999 762.704 5.88999 760.777 6.57C758.964 7.13666 757.717 8.38333 757.037 10.31C756.357 12.2367 756.017 15.3533 756.017 19.66V59.78H767.237C771.204 59.78 774.264 58.8733 776.417 57.06C778.57 55.1333 779.987 52.9233 780.667 50.43C781.46 47.8233 782.084 44.5933 782.537 40.74L783.047 37.34H786.957C786.617 42.1 786.447 47.4267 786.447 53.32V61.48C786.447 67.26 786.787 75.3067 787.467 85.62H783.557C783.444 84.8267 783.104 82.1067 782.537 77.46C781.97 72.7 780.384 69.13 777.777 66.75C775.284 64.37 771.77 63.18 767.237 63.18H756.017V103.98C756.017 108.287 756.357 111.403 757.037 113.33C757.717 115.257 758.964 116.56 760.777 117.24C762.704 117.807 765.707 118.09 769.787 118.09H782.197C789.224 118.09 794.55 117.183 798.177 115.37C801.917 113.443 804.637 110.44 806.337 106.36C808.037 102.167 809.284 96.0467 810.077 88H813.987C813.647 91.06 813.477 95.14 813.477 100.24Z" fill="#CE0139"/>
</svg>
