<svg width="16" height="16" viewBox="0 0 16 16" fill="none" xmlns="http://www.w3.org/2000/svg">
<path d="M2.93105 10.843L7.61605 6.23201C7.71827 6.13088 7.85626 6.07416 8.00005 6.07416C8.14384 6.07416 8.28183 6.13088 8.38405 6.23201L13.0691 10.842C13.1719 10.9431 13.3103 10.9997 13.4546 10.9997C13.5988 10.9997 13.7372 10.9431 13.8401 10.842C13.8907 10.7926 13.931 10.7336 13.9584 10.6684C13.9859 10.6033 14.0001 10.5332 14.0001 10.4625C14.0001 10.3918 13.9859 10.3218 13.9584 10.2566C13.931 10.1914 13.8907 10.1324 13.8401 10.083L9.15605 5.47301C8.84753 5.17009 8.43243 5.00037 8.00005 5.00037C7.56768 5.00037 7.15257 5.17009 6.84405 5.47301L2.16005 10.083C2.10925 10.1324 2.06887 10.1915 2.04129 10.2568C2.01372 10.322 1.99951 10.3922 1.99951 10.463C1.99951 10.5339 2.01372 10.604 2.04129 10.6693C2.06887 10.7345 2.10925 10.7936 2.16005 10.843C2.26291 10.9441 2.40135 11.0007 2.54555 11.0007C2.68976 11.0007 2.8282 10.9441 2.93105 10.843Z" fill="black"/>
</svg>
